# xmcd
#
# Track frame offsets: 
#        150
#        19616
#        43250
#        59193
#        86318
#        109833
#        130624
#        147486
#
# Disc length: 2250 seconds
#
# Revision: 0
# Processed by: cddbd v1.5.2PL0 Copyright (c) Steve Scherf et al.
# Submitted via: ExactAudioCopy v0.99pb3
#
DISCID=6e08c808
DTITLE=Nappy Brown - Deep Sea Diver
DYEAR=2003
DGENRE=Blues
TTITLE0=Mary Lue
TTITLE1=Things Have Changes
TTITLE2=Bye-Bye Baby
TTITLE3=Don't Hurt No More
TTITLE4=Deap Sea Diver
TTITLE5=Baby It's All Over
TTITLE6=You Must Be Crazy
TTITLE7=Wella-Wella Baby Le
EXTD=
EXTT0=
EXTT1=
EXTT2=
EXTT3=
EXTT4=
EXTT5=
EXTT6=
EXTT7=
PLAYORDER=
